<mxfile host="app.diagrams.net" agent="Mozilla/5.0 (Macintosh; Intel Mac OS X 10_15_7) AppleWebKit/537.36 (KHTML, like Gecko) Chrome/141.0.0.0 Safari/537.36" version="28.2.7">
  <diagram name="Page-1" id="aX9ljhzohJBaD2XKm4DW">
    <mxGraphModel dx="2078" dy="1369" grid="1" gridSize="10" guides="1" tooltips="1" connect="1" arrows="1" fold="1" page="0" pageScale="1" pageWidth="1654" pageHeight="1169" background="#ffffff" math="0" shadow="0">
      <root>
        <mxCell id="0" />
        <mxCell id="1" parent="0" />
        <mxCell id="z6Dhj2TsafddW90ABoMI-1" value="Redis to&lt;div&gt;store Counter&lt;/div&gt;" style="rounded=0;whiteSpace=wrap;html=1;" vertex="1" parent="1">
          <mxGeometry x="120" y="-40" width="120" height="80" as="geometry" />
        </mxCell>
        <mxCell id="z6Dhj2TsafddW90ABoMI-2" value="Client" style="rounded=0;whiteSpace=wrap;html=1;" vertex="1" parent="1">
          <mxGeometry x="-320" y="150" width="120" height="60" as="geometry" />
        </mxCell>
        <mxCell id="z6Dhj2TsafddW90ABoMI-3" value="Server" style="rounded=0;whiteSpace=wrap;html=1;" vertex="1" parent="1">
          <mxGeometry x="210" y="150" width="120" height="60" as="geometry" />
        </mxCell>
        <mxCell id="z6Dhj2TsafddW90ABoMI-4" value="Middle-&lt;div&gt;ware /&amp;nbsp;&lt;/div&gt;&lt;div&gt;API Gateway&lt;/div&gt;&lt;div&gt;that holds&lt;/div&gt;&lt;div&gt;rate limiter&lt;/div&gt;" style="rounded=0;whiteSpace=wrap;html=1;" vertex="1" parent="1">
          <mxGeometry x="-40" y="80" width="80" height="200" as="geometry" />
        </mxCell>
        <mxCell id="z6Dhj2TsafddW90ABoMI-5" value="" style="endArrow=classic;html=1;rounded=0;entryX=0;entryY=0.5;entryDx=0;entryDy=0;exitX=1;exitY=0.5;exitDx=0;exitDy=0;" edge="1" parent="1" source="z6Dhj2TsafddW90ABoMI-2" target="z6Dhj2TsafddW90ABoMI-4">
          <mxGeometry width="50" height="50" relative="1" as="geometry">
            <mxPoint x="-300" y="140" as="sourcePoint" />
            <mxPoint x="-250" y="90" as="targetPoint" />
          </mxGeometry>
        </mxCell>
        <mxCell id="z6Dhj2TsafddW90ABoMI-6" value="" style="endArrow=classic;html=1;rounded=0;entryX=0;entryY=0.5;entryDx=0;entryDy=0;exitX=0.5;exitY=0;exitDx=0;exitDy=0;" edge="1" parent="1" source="z6Dhj2TsafddW90ABoMI-4" target="z6Dhj2TsafddW90ABoMI-1">
          <mxGeometry width="50" height="50" relative="1" as="geometry">
            <mxPoint x="-150" y="40" as="sourcePoint" />
            <mxPoint x="-100" y="-10" as="targetPoint" />
            <Array as="points">
              <mxPoint />
            </Array>
          </mxGeometry>
        </mxCell>
        <mxCell id="z6Dhj2TsafddW90ABoMI-7" value="Config Files (in Disk)&lt;div&gt;to store the rate limiter configurations&lt;/div&gt;&lt;div&gt;like algorithm and other patameters&lt;/div&gt;" style="rounded=0;whiteSpace=wrap;html=1;" vertex="1" parent="1">
          <mxGeometry x="200" y="400" width="140" height="80" as="geometry" />
        </mxCell>
        <mxCell id="z6Dhj2TsafddW90ABoMI-8" value="Cache" style="rounded=0;whiteSpace=wrap;html=1;" vertex="1" parent="1">
          <mxGeometry y="410" width="120" height="60" as="geometry" />
        </mxCell>
        <mxCell id="z6Dhj2TsafddW90ABoMI-9" value="" style="endArrow=classic;html=1;rounded=0;exitX=0.75;exitY=1;exitDx=0;exitDy=0;" edge="1" parent="1" source="z6Dhj2TsafddW90ABoMI-4">
          <mxGeometry width="50" height="50" relative="1" as="geometry">
            <mxPoint x="30" y="360" as="sourcePoint" />
            <mxPoint x="20" y="410" as="targetPoint" />
          </mxGeometry>
        </mxCell>
        <mxCell id="z6Dhj2TsafddW90ABoMI-10" value="" style="endArrow=classic;html=1;rounded=0;entryX=1;entryY=0.75;entryDx=0;entryDy=0;exitX=0;exitY=0.575;exitDx=0;exitDy=0;exitPerimeter=0;" edge="1" parent="1" source="z6Dhj2TsafddW90ABoMI-4" target="z6Dhj2TsafddW90ABoMI-2">
          <mxGeometry width="50" height="50" relative="1" as="geometry">
            <mxPoint x="-200" y="330" as="sourcePoint" />
            <mxPoint x="-150" y="280" as="targetPoint" />
          </mxGeometry>
        </mxCell>
        <mxCell id="z6Dhj2TsafddW90ABoMI-11" value="429 or success" style="edgeLabel;html=1;align=center;verticalAlign=middle;resizable=0;points=[];" vertex="1" connectable="0" parent="z6Dhj2TsafddW90ABoMI-10">
          <mxGeometry x="0.05" relative="1" as="geometry">
            <mxPoint as="offset" />
          </mxGeometry>
        </mxCell>
        <mxCell id="z6Dhj2TsafddW90ABoMI-12" value="" style="endArrow=classic;html=1;rounded=0;entryX=0;entryY=0.5;entryDx=0;entryDy=0;exitX=1;exitY=0.5;exitDx=0;exitDy=0;" edge="1" parent="1" source="z6Dhj2TsafddW90ABoMI-4" target="z6Dhj2TsafddW90ABoMI-3">
          <mxGeometry width="50" height="50" relative="1" as="geometry">
            <mxPoint x="-350" y="410" as="sourcePoint" />
            <mxPoint x="-300" y="360" as="targetPoint" />
          </mxGeometry>
        </mxCell>
        <mxCell id="z6Dhj2TsafddW90ABoMI-13" value="" style="endArrow=classic;html=1;rounded=0;entryX=0;entryY=0.5;entryDx=0;entryDy=0;exitX=1;exitY=0.5;exitDx=0;exitDy=0;" edge="1" parent="1" source="z6Dhj2TsafddW90ABoMI-8" target="z6Dhj2TsafddW90ABoMI-7">
          <mxGeometry width="50" height="50" relative="1" as="geometry">
            <mxPoint x="20" y="580" as="sourcePoint" />
            <mxPoint x="70" y="530" as="targetPoint" />
          </mxGeometry>
        </mxCell>
        <mxCell id="z6Dhj2TsafddW90ABoMI-14" value="Client" style="rounded=0;whiteSpace=wrap;html=1;" vertex="1" parent="1">
          <mxGeometry x="520" y="150" width="120" height="60" as="geometry" />
        </mxCell>
        <mxCell id="z6Dhj2TsafddW90ABoMI-15" value="Rate limiter 1" style="rounded=0;whiteSpace=wrap;html=1;" vertex="1" parent="1">
          <mxGeometry x="760" y="40" width="120" height="60" as="geometry" />
        </mxCell>
        <mxCell id="z6Dhj2TsafddW90ABoMI-16" value="Rate limiter 1" style="rounded=0;whiteSpace=wrap;html=1;" vertex="1" parent="1">
          <mxGeometry x="760" y="150" width="120" height="60" as="geometry" />
        </mxCell>
        <mxCell id="z6Dhj2TsafddW90ABoMI-17" value="Rate limiter 1" style="rounded=0;whiteSpace=wrap;html=1;" vertex="1" parent="1">
          <mxGeometry x="760" y="260" width="120" height="60" as="geometry" />
        </mxCell>
        <mxCell id="z6Dhj2TsafddW90ABoMI-18" value="" style="endArrow=classic;html=1;rounded=0;entryX=0;entryY=0.5;entryDx=0;entryDy=0;exitX=1;exitY=0.5;exitDx=0;exitDy=0;" edge="1" parent="1" source="z6Dhj2TsafddW90ABoMI-14" target="z6Dhj2TsafddW90ABoMI-15">
          <mxGeometry width="50" height="50" relative="1" as="geometry">
            <mxPoint x="570" y="440" as="sourcePoint" />
            <mxPoint x="620" y="390" as="targetPoint" />
          </mxGeometry>
        </mxCell>
        <mxCell id="z6Dhj2TsafddW90ABoMI-19" value="" style="endArrow=classic;html=1;rounded=0;entryX=0;entryY=0.5;entryDx=0;entryDy=0;" edge="1" parent="1" target="z6Dhj2TsafddW90ABoMI-16">
          <mxGeometry width="50" height="50" relative="1" as="geometry">
            <mxPoint x="640" y="180" as="sourcePoint" />
            <mxPoint x="740" y="280" as="targetPoint" />
          </mxGeometry>
        </mxCell>
        <mxCell id="z6Dhj2TsafddW90ABoMI-20" value="" style="endArrow=classic;html=1;rounded=0;entryX=0;entryY=0.5;entryDx=0;entryDy=0;exitX=1;exitY=0.5;exitDx=0;exitDy=0;" edge="1" parent="1" source="z6Dhj2TsafddW90ABoMI-14" target="z6Dhj2TsafddW90ABoMI-17">
          <mxGeometry width="50" height="50" relative="1" as="geometry">
            <mxPoint x="560" y="360" as="sourcePoint" />
            <mxPoint x="610" y="310" as="targetPoint" />
          </mxGeometry>
        </mxCell>
        <mxCell id="z6Dhj2TsafddW90ABoMI-21" value="In case of distributed environment maintain a single redis for a counter" style="text;html=1;whiteSpace=wrap;strokeColor=none;fillColor=none;align=center;verticalAlign=middle;rounded=0;" vertex="1" parent="1">
          <mxGeometry x="630" y="360" width="200" height="30" as="geometry" />
        </mxCell>
        <mxCell id="z6Dhj2TsafddW90ABoMI-22" value="" style="endArrow=classic;html=1;rounded=0;exitX=1;exitY=0.5;exitDx=0;exitDy=0;entryX=0;entryY=0.5;entryDx=0;entryDy=0;" edge="1" parent="1" source="z6Dhj2TsafddW90ABoMI-15" target="z6Dhj2TsafddW90ABoMI-25">
          <mxGeometry width="50" height="50" relative="1" as="geometry">
            <mxPoint x="960" y="80" as="sourcePoint" />
            <mxPoint x="1010" y="190" as="targetPoint" />
          </mxGeometry>
        </mxCell>
        <mxCell id="z6Dhj2TsafddW90ABoMI-23" value="" style="endArrow=classic;html=1;rounded=0;exitX=1;exitY=0.5;exitDx=0;exitDy=0;entryX=0;entryY=0.5;entryDx=0;entryDy=0;" edge="1" parent="1" source="z6Dhj2TsafddW90ABoMI-16" target="z6Dhj2TsafddW90ABoMI-25">
          <mxGeometry width="50" height="50" relative="1" as="geometry">
            <mxPoint x="540" y="80" as="sourcePoint" />
            <mxPoint x="1010" y="190" as="targetPoint" />
          </mxGeometry>
        </mxCell>
        <mxCell id="z6Dhj2TsafddW90ABoMI-24" value="" style="endArrow=classic;html=1;rounded=0;exitX=1;exitY=0.5;exitDx=0;exitDy=0;entryX=0;entryY=0.5;entryDx=0;entryDy=0;" edge="1" parent="1" source="z6Dhj2TsafddW90ABoMI-17" target="z6Dhj2TsafddW90ABoMI-25">
          <mxGeometry width="50" height="50" relative="1" as="geometry">
            <mxPoint x="970" y="280" as="sourcePoint" />
            <mxPoint x="1020" y="230" as="targetPoint" />
          </mxGeometry>
        </mxCell>
        <mxCell id="z6Dhj2TsafddW90ABoMI-25" value="Redis" style="rounded=0;whiteSpace=wrap;html=1;" vertex="1" parent="1">
          <mxGeometry x="1020" y="150" width="120" height="60" as="geometry" />
        </mxCell>
      </root>
    </mxGraphModel>
  </diagram>
</mxfile>
